<?xml version="1.0" encoding="UTF-8"?>
<!-- Generated by Pixelmator Pro 4.2 -->
<svg width="1000" height="900" viewBox="0 0 1000 900" xmlns="http://www.w3.org/2000/svg">
    <path id="Path" fill="#faf7f2" stroke="none" d="M -100 0 L 1100 0 L 1100 900 L -100 900 Z"/>
    <path id="path1" fill="#e64531" stroke="none" d="M 529.5 510.5 C 529.5 523.202515 519.202515 533.5 506.5 533.5 C 493.797485 533.5 483.5 523.202515 483.5 510.5 C 483.5 497.797485 493.797485 487.5 506.5 487.5 C 519.202515 487.5 529.5 497.797485 529.5 510.5 Z"/>
    <path id="path2" fill="none" stroke="#e64531" stroke-width="9" stroke-linecap="round" d="M 380 511 C 380 444.72583 433.72583 391 500 391 C 566.27417 391 620 444.72583 620 511"/>
    <path id="path3" fill="none" stroke="#e64531" stroke-width="7.5" stroke-linecap="round" d="M 284 511 C 284 391.706482 380.706482 295 500 295 C 619.293518 295 716 391.706482 716 511"/>
    <path id="path4" fill="none" stroke="#e64531" stroke-width="6" stroke-linecap="round" d="M 182 511 C 182 335.373413 324.373444 193 500 193 C 675.626526 193 818 335.373413 818 511"/>
    <path id="path5" fill="none" stroke="#e64531" stroke-width="4.5" stroke-linecap="round" d="M 74 511 C 74 358.804871 155.195145 218.170776 287 142.073181 C 418.804871 65.975586 581.195129 65.975586 713 142.073181 C 844.804871 218.170776 926 358.804871 926 511"/>
    <text id="A-Resonant-Life" xml:space="preserve" x="90.574706" y="660" font-family="Avenir Next" font-size="103" font-weight="500" fill="#1a1a2e" letter-spacing="5.634706">A Resonant Life</text>
    <path id="path6" fill="#000000" stroke="#e7e2d8" stroke-width="3" d="M 32 511 L 968 511"/>
    <text id="PODCAST" xml:space="preserve" x="336.664627" y="787" font-family="Fraunces" font-size="39" font-weight="700" fill="#e64531" letter-spacing="18">PODCAST</text>
    <path id="path7" fill="#000000" stroke="#e7e2d8" stroke-width="3" d="M 116 707 L 884 707"/>
</svg>
