<svg viewBox="0 0 1000 580" xmlns="http://www.w3.org/2000/svg">
    <path fill="#e64531" stroke="none" d="M 529.5 510.5 C 529.5 523.202515 519.202515 533.5 506.5 533.5 C 493.797485 523.202515 483.5 523.202515 483.5 510.5 C 483.5 497.797485 493.797485 487.5 506.5 487.5 C 519.202515 487.5 529.5 497.797485 529.5 510.5 Z"/>
    <path fill="none" stroke="#e64531" stroke-width="9" stroke-linecap="round" d="M 380 511 C 380 444.72583 433.72583 391 500 391 C 566.27417 391 620 444.72583 620 511"/>
    <path fill="none" stroke="#e64531" stroke-width="7.5" stroke-linecap="round" d="M 284 511 C 284 391.706482 380.706482 295 500 295 C 619.293518 295 716 391.706482 716 511"/>
    <path fill="none" stroke="#e64531" stroke-width="6" stroke-linecap="round" d="M 182 511 C 182 335.373413 324.373444 193 500 193 C 675.626526 193 818 335.373413 818 511"/>
    <path fill="none" stroke="#e64531" stroke-width="4.5" stroke-linecap="round" d="M 74 511 C 74 358.804871 155.195145 218.170776 287 142.073181 C 418.804871 65.975586 581.195129 65.975586 713 142.073181 C 844.804871 218.170776 926 358.804871 926 511"/>
</svg>
